#!OML:ASF F:\VICON\USERDATA\INSTALL\rory3\rory3.ASF
:FULLY-SPECIFIED
:DEGREES
1
root 1.05335 17.8153 -16.2679 5.69992 -0.996453 -0.331794
lowerback 4.17359 -0.341491 -1.337
upperback -1.02482 -0.452514 2.32561
thorax -3.36906 -0.173968 3.18394
lowerneck -18.0337 -4.07403 -9.56006
upperneck 15.964 -4.33885 6.65773
head 8.28455 -1.97436 3.2657
rclavicle -1.09829e-014 1.59028e-014
rhumerus -32.1672 -9.34214 -80.7769
rradius 30.4344
rwrist 5.87046
rhand -12.1597 12.6054
rfingers 7.12502
rthumb 13.9031 -16.9098
lclavicle -1.09829e-014 1.59028e-014
lhumerus -29.8142 9.22364 86.1194
lradius 26.0868
lwrist -12.9064
lhand -11.5294 28.5971
lfingers 7.12502
lthumb 14.5105 58.0697
rfemur -8.92541 3.48295 21.6059
rtibia 20.3285
rfoot -10.8929 -13.2945
rtoes 1.84074
lfemur -8.95219 -3.21395 -20.4246
ltibia 19.6358
lfoot -13.2509 5.51188
ltoes 1.96167
2
root 1.05549 17.8146 -16.2685 5.71689 -0.853532 -0.267379
lowerback 4.22131 -0.368728 -1.3438
upperback -1.01062 -0.489959 2.312
thorax -3.37888 -0.192645 3.17669
lowerneck -18.3365 -4.0915 -9.56876
upperneck 16.1492 -4.33975 6.664
head 8.40037 -1.97049 3.2688
rclavicle -1.2424e-015 -6.36111e-015
rhumerus -32.1405 -9.3041 -80.7855
rradius 30.4976
rwrist 5.71554
rhand -12.1059 12.6069
rfingers 7.12502
rthumb 13.9549 -16.9048
lclavicle -1.2424e-015 -6.36111e-015
lhumerus -29.7031 9.21452 86.1683
lradius 26.0811
lwrist -12.8297
lhand -11.4336 28.7893
lfingers 7.12502
lthumb 14.6028 58.2552
rfemur -8.93425 3.37768 21.5338
rtibia 20.3124
rfoot -10.8747 -13.2508
rtoes 2.92919
lfemur -8.94185 -3.28876 -20.4908
ltibia 19.5951
lfoot -13.2438 5.42445
ltoes 2.13564
3
root 1.05769 17.8166 -16.2675 5.84038 -0.844066 -0.279427
lowerback 4.09391 -0.353588 -1.26604
upperback -0.987267 -0.466119 2.29425
thorax -3.28507 -0.183958 3.11083
lowerneck -18.5655 -4.1223 -9.56045
upperneck 16.2269 -4.37285 6.70131
head 8.47034 -1.9781 3.275
rclavicle 3.47873e-015 -1.19271e-014
rhumerus -32.0251 -9.3726 -80.7997
rradius 30.4908
rwrist 5.82647
rhand -12.2651 12.6051
rfingers 7.12502
rthumb 13.8015 -16.917
lclavicle 3.47873e-015 -1.19271e-014
lhumerus -29.525 9.13222 86.203
lradius 25.9474
lwrist -12.7734
lhand -11.7698 28.203
lfingers 7.12502
lthumb 14.2789 57.692
rfemur -9.08029 3.32584 21.5191
rtibia 20.3308
rfoot -10.8522 -13.1057
rtoes 3.07948
lfemur -9.04364 -3.321 -20.485
ltibia 19.5382
lfoot -13.2472 5.46235
ltoes 2.21997
4
root 1.05954 17.8174 -16.2664 5.87747 -0.95691 -0.231165
lowerback 4.00738 -0.339602 -1.29328
upperback -0.978804 -0.449568 2.2713
thorax -3.22854 -0.176209 3.10015
lowerneck -18.405 -4.07261 -9.61019
upperneck 16.1193 -4.32154 6.79652
head 8.40464 -1.94951 3.3228
rclavicle -3.57812e-015 2.38542e-015
rhumerus -31.9656 -9.29732 -80.8471
rradius 30.4501
rwrist 5.92384
rhand -12.4674 12.7578
rfingers 7.12502
rthumb 13.6065 -16.7776
lclavicle -3.57812e-015 2.38542e-015
lhumerus -29.569 9.21289 86.1522
lradius 25.8641
lwrist -12.8376
lhand -11.9621 27.7545
lfingers 7.12502
lthumb 14.0935 57.2565
rfemur -9.11198 3.30632 21.4381
rtibia 20.3116
rfoot -10.7941 -12.9401
rtoes 2.50615
lfemur -9.11134 -3.31303 -20.5606
ltibia 19.4992
lfoot -13.1693 5.58954
ltoes 2.11796
5
root 1.05885 17.8191 -16.2661 5.91087 -1.00736 -0.260778
lowerback 3.94645 -0.321927 -1.26914
upperback -0.984443 -0.424281 2.27957
thorax -3.20172 -0.164274 3.09277
lowerneck -18.2382 -4.04113 -9.66907
upperneck 16.0276 -4.29149 6.87917
head 8.34511 -1.93308 3.36502
rclavicle -1.99779e-014 7.15625e-015
rhumerus -32.019 -9.23863 -80.8499
rradius 30.5072
rwrist 5.71663
rhand -12.212 12.5294
rfingers 7.12502
rthumb 13.8527 -16.9893
lclavicle -1.99779e-014 7.15625e-015
lhumerus -29.6639 9.12163 86.1663
lradius 26.0016
lwrist -12.958
lhand -11.5296 28.1568
lfingers 7.12502
lthumb 14.5103 57.6294
rfemur -9.13103 3.34177 21.4755
rtibia 20.2943
rfoot -10.7964 -12.9626
rtoes 1.97271
lfemur -9.2363 -3.27208 -20.5291
ltibia 19.4961
lfoot -13.0332 5.62538
ltoes 2.07135
6
root 1.05667 17.8202 -16.2697 5.93959 -1.03933 -0.359701
lowerback 4.00622 -0.29642 -1.20229
upperback -1.01273 -0.385378 2.31412
thorax -3.2673 -0.144746 3.08924
lowerneck -18.1943 -4.03239 -9.70693
upperneck 16.0607 -4.28793 6.94283
head 8.35058 -1.92836 3.39428
rclavicle -7.90169e-015 -2.38542e-015
rhumerus -32.0785 -9.24677 -80.8349
rradius 30.5258
rwrist 5.54831
rhand -11.9852 11.919
rfingers 7.12502
rthumb 14.0712 -17.5846
lclavicle -7.90169e-015 -2.38542e-015
lhumerus -29.7287 9.02855 86.1889
lradius 26.1286
lwrist -13.0629
lhand -11.206 28.4466
lfingers 7.12502
lthumb 14.822 57.8965
rfemur -9.17097 3.49941 21.5959
rtibia 20.2674
rfoot -10.8299 -13.1733
rtoes 1.26018
lfemur -9.32283 -3.36544 -20.3929
ltibia 19.5413
lfoot -13.0204 5.70019
ltoes 2.0522
